<svg xmlns="http://www.w3.org/2000/svg" viewBox="0 0 64 64" id="developer"><path fill="#231f5c" d="M49.45 3.34C49.39 3.31 42.22 0 33.55 0c-6.99 0-12.99 2.09-17.79 6.17-.31.22-7.51 5.48-6.22 17.89.04.37-.05.71-.32 1.08l-5.18 8.81c-.39.55-.59 1.19-.58 1.84.04 2.09 1.48 2.53 3.38 3.02-.77 1.19-.58 2.84.43 3.83-.36.52-.54 1.14-.5 1.78.04.6.28 1.48 1.25 2.32.05.04.1.08.17.12-.42.5-.66 1.13-.7 1.79-.17 3.47 1.53 5.92 4.43 6.39l.08.01 6.26.34c.03 0 .79.12 1.18 1.7.01.03.74 3.27 1.47 5.03A3.059 3.059 0 0 0 23.75 64h28.56c.99 0 1.89-.46 2.48-1.26.58-.8.75-1.8.45-2.74-1.04-3.29-2.12-9.43-2.14-9.49-.41-2.37-.49-4.6-.23-6.62.32-2.38 1.45-4.74 3.28-6.81 3.89-4.43 4.02-9.12 3.99-10.2C63.03 9.69 49.53 3.37 49.45 3.34zm7.49 23.12c-.04.16-.04.29-.04.4v.08l.01.02c.01.42.04 4.32-3.19 7.98-2.26 2.58-3.66 5.53-4.04 8.53-.3 2.33-.22 4.88.26 7.62.19 1.06 1.16 6.41 2.17 9.67H23.85c-.59-1.48-1.25-4.37-1.26-4.42-.81-3.31-3.1-4.19-4.16-4.19l-6.02-.32c-1.18-.2-1.75-1.18-1.69-2.94.89-.96.97-1.9.87-2.52-.18-1.1-.99-1.79-1.46-2.11.79-1 1.02-2.03.65-2.9-.2-.49-.55-.87-1.02-1.11.11-.21.21-.41.28-.63.26-.78.17-1.61-.23-2.36-.41-.75-1.13-1.31-2.03-1.54-.21-.05-.58-.15-.9-.24l5.05-8.56c.65-.91.95-2.04.83-3.19-1.07-10.23 4.34-14.52 4.99-15 4.29-3.64 9.63-5.49 15.86-5.49 7.49 0 13.77 2.71 14.47 3.03.46.22 11.37 5.7 8.86 20.19z"></path><path fill="#231f5c" d="M33.9 10.19c-7.32 0-13.27 5.95-13.27 13.27 0 7.31 5.95 13.26 13.27 13.26 7.31 0 13.26-5.95 13.26-13.26 0-7.33-5.95-13.27-13.26-13.27zm-3.74 15.23c.4.34.44.94.09 1.34a.943.943 0 0 1-1.34.08l-2.84-2.49a.943.943 0 0 1-.32-.71c0-.28.11-.54.32-.72l2.84-2.49c.4-.35 1-.3 1.34.09.35.4.31 1-.09 1.34l-2.03 1.79 2.03 1.77zm6.3-7.86-3.29 12.27c-.11.43-.49.71-.91.71-.09 0-.17-.02-.25-.04a.94.94 0 0 1-.67-1.16l3.29-12.27c.13-.51.66-.81 1.17-.67.49.13.8.66.66 1.16zm5.27 6.8-2.84 2.49a.943.943 0 0 1-1.34-.08c-.35-.4-.3-1 .09-1.34l2.03-1.78-2.03-1.79a.95.95 0 1 1 1.25-1.43l2.84 2.49c.21.18.32.45.32.72 0 .27-.11.54-.32.72z"></path></svg>